<svg width="477" height="639" viewBox="0 0 477 639" fill="none" xmlns="http://www.w3.org/2000/svg">
<path d="M240.704 397.207L197.914 323.092H283.495L240.704 397.207Z" fill="white"/>
<rect x="154.705" y="426.634" width="167.003" height="93.9054" rx="46.9527" fill="#FF5E03"/>
<rect x="170.243" y="433.119" width="135.926" height="63.099" rx="31.5495" fill="#FFC900"/>
<rect x="219.561" y="565.397" width="12.7009" height="61.7479" rx="6.35044" fill="#1C1B29"/>
<rect x="216.588" y="618.769" width="18.646" height="19.9971" rx="4.3237" fill="#FF5E03"/>
<rect x="211.724" y="630.929" width="23.5101" height="7.83671" rx="3.91836" fill="#FF5E03"/>
<rect x="240.503" y="630.929" width="23.5101" height="7.83671" rx="3.91836" fill="#FF5E03"/>
<rect x="243.476" y="565.397" width="12.7009" height="61.7479" rx="6.35044" fill="#0E0E0E"/>
<rect x="200.529" y="532.063" width="74.679" height="43.9288" rx="13.9108" fill="#FF5E03"/>
<rect x="240.503" y="618.769" width="18.646" height="19.9971" rx="4.3237" fill="#FF5E03"/>
<rect x="206.184" y="520.539" width="64.0449" height="12.1604" rx="6.08021" fill="#0E0E0E"/>
<path d="M165.614 474.246C166.28 474.991 165.934 476.176 164.973 476.447L156.496 478.834C155.785 479.034 155.046 478.626 154.835 477.919L149.537 460.115C149.126 458.732 150.878 457.753 151.84 458.83L165.614 474.246Z" fill="#FF5E03"/>
<path d="M310.855 474.25C310.189 474.995 310.534 476.18 311.496 476.451L319.972 478.838C320.683 479.038 321.423 478.63 321.633 477.923L326.931 460.119C327.343 458.736 325.59 457.757 324.628 458.834L310.855 474.25Z" fill="#FF5E03"/>
<path d="M231.528 474.396C223.214 443.535 196.866 447.609 183.699 453.936C183.126 454.211 182.85 454.877 183.024 455.488C192.28 488.09 218.181 482.982 230.919 475.89C231.441 475.599 231.684 474.974 231.528 474.396Z" fill="white"/>
<circle cx="207.345" cy="465.218" r="14.5457" transform="rotate(-14.9 207.345 465.218)" fill="black"/>
<path d="M244.208 474.531C252.524 443.67 278.871 447.744 292.039 454.071C292.611 454.346 292.887 455.012 292.713 455.623C283.456 488.226 257.556 483.117 244.818 476.025C244.296 475.734 244.053 475.108 244.208 474.531Z" fill="white"/>
<circle cx="268.392" cy="465.353" r="14.5457" transform="rotate(14.9013 268.392 465.353)" fill="black"/>
<circle cx="167.579" cy="528.639" r="9.79241" transform="rotate(132.521 167.579 528.639)" fill="#FF5E03"/>
<path d="M168.178 542.474C170.092 544.229 172.625 545.152 175.22 545.04C177.814 544.928 180.258 543.789 182.014 541.875C183.769 539.961 184.692 537.428 184.579 534.833C184.467 532.238 183.329 529.795 181.415 528.039L174.796 535.257L168.178 542.474Z" fill="#0E0E0E"/>
<circle cx="301.261" cy="597.042" r="9.79241" transform="rotate(-54.1759 301.261 597.042)" fill="#FF5E03"/>
<path d="M299.052 583.371C296.947 581.851 294.323 581.229 291.759 581.644C289.195 582.058 286.901 583.473 285.381 585.579C283.861 587.685 283.24 590.308 283.654 592.872C284.068 595.436 285.484 597.73 287.589 599.251L293.321 591.311L299.052 583.371Z" fill="#0E0E0E"/>
<rect x="55.9116" y="65.1729" width="363.657" height="301.4" fill="white"/>
<path d="M165.849 216.241H158.622H151.396V209.015V201.788H158.622H165.849H173.075V209.015V216.241H165.849ZM173.075 201.788V194.562V187.336V180.11V172.884V165.657V158.431V151.205V143.979V136.753V129.526H180.301H187.527V136.753V143.979V151.205V158.431V165.657V172.884V180.11V187.336V194.562V201.788H180.301H173.075ZM151.396 201.788H144.17H136.944V194.562V187.336H144.17H151.396V194.562V201.788ZM230.884 216.241H223.658H216.432H209.206V209.015V201.788H216.432H223.658H230.884H238.11V209.015V216.241H230.884ZM238.11 201.788V194.562V187.336V180.11V172.884V165.657H245.337H252.563V172.884V180.11V187.336V194.562V201.788H245.337H238.11ZM209.206 201.788H201.979H194.753V194.562V187.336V180.11V172.884V165.657H201.979H209.206V172.884V180.11V187.336V194.562V201.788ZM238.11 165.657H230.884H223.658H216.432H209.206V158.431V151.205H216.432H223.658H230.884H238.11V158.431V165.657ZM267.015 216.241H259.789V209.015V201.788V194.562V187.336V180.11V172.884V165.657V158.431V151.205H267.015H274.241V158.431V165.657V172.884V180.11V187.336V194.562V201.788V209.015V216.241H267.015ZM267.015 143.979H259.789V136.753V129.526H267.015H274.241V136.753V143.979H267.015ZM339.277 216.241H332.051V209.015V201.788V194.562V187.336V180.11V172.884V165.657H339.277H346.503V172.884V180.11V187.336V194.562V201.788V209.015V216.241H339.277ZM288.694 216.241H281.468V209.015V201.788V194.562V187.336V180.11V172.884V165.657V158.431V151.205H288.694H295.92H303.146H310.372H317.599H324.825H332.051V158.431V165.657H324.825H317.599H310.372H303.146H295.92V172.884V180.11V187.336V194.562V201.788V209.015V216.241H288.694ZM187.527 305.241H180.301H173.075H165.849H158.622H151.396V298.015V290.788H158.622H165.849H173.075H180.301V283.562V276.336V269.11V261.884V254.657V247.431V240.205H187.527H194.753V247.431V254.657V261.884V269.11V276.336V283.562V290.788V298.015V305.241H187.527ZM151.396 290.788H144.17H136.944V283.562V276.336V269.11V261.884V254.657V247.431V240.205H144.17H151.396V247.431V254.657V261.884V269.11V276.336V283.562V290.788ZM230.884 305.241H223.658H216.432H209.206H201.979V298.015V290.788H209.206H216.432H223.658H230.884H238.11V298.015V305.241H230.884ZM238.11 290.788V283.562V276.336H245.337H252.563V283.562V290.788H245.337H238.11ZM238.11 276.336H230.884H223.658H216.432V269.11V261.884H223.658H230.884H238.11V269.11V276.336ZM216.432 261.884H209.206H201.979V254.657V247.431H209.206H216.432V254.657V261.884ZM245.337 247.431H238.11H230.884H223.658H216.432V240.205V232.979H223.658H230.884H238.11H245.337H252.563V240.205V247.431H245.337Z" fill="#16181C"/>
<path d="M289.373 298.896H285.174H280.974H276.774V294.696V290.496H280.974H285.174H289.373H293.573V294.696V298.896H289.373ZM276.774 290.496H272.574H268.374V286.296V282.096V277.896V273.696V269.497V265.297V261.097V256.897H272.574H276.774V261.097V265.297V269.497V273.696V277.896V282.096V286.296V290.496ZM289.373 256.897H285.174H280.974H276.774V252.697V248.497H280.974H285.174H289.373H293.573V252.697V256.897H289.373ZM306.173 298.896H301.973V294.696V290.496H306.173H310.373V294.696V298.896H306.173ZM306.173 269.497H301.973V265.297V261.097H306.173H310.373V265.297V269.497H306.173Z" fill="#16181C"/>
<rect width="302.388" height="110.678" fill="#16181C"/>
<rect x="342.489" y="340.88" width="50.3981" height="50.3981" fill="#16181C"/>
<rect x="353.116" y="360.275" width="29.3074" height="15.089" fill="white"/>
<rect x="372.557" y="375.364" width="4.93293" height="5.22311" fill="white"/>
<rect x="377.49" y="380.587" width="3.77224" height="3.99414" fill="white"/>
<rect x="354.276" y="380.587" width="3.77224" height="3.99414" fill="white"/>
<rect x="379.231" y="347.798" width="3.77224" height="3.99414" fill="white"/>
<rect x="352.535" y="347.798" width="3.77224" height="3.99414" fill="white"/>
<rect x="350.794" y="353.311" width="2.90173" height="4.93293" fill="white"/>
<rect x="382.423" y="353.601" width="2.90173" height="4.93293" fill="white"/>
<rect x="350.794" y="353.311" width="5.51328" height="2.61155" fill="white"/>
<rect x="379.812" y="353.311" width="5.51328" height="2.61155" fill="white"/>
<rect x="348.763" y="368.109" width="38.3028" height="2.61155" fill="white"/>
<rect x="358.629" y="363.177" width="4.35259" height="7.54449" fill="#16181C"/>
<rect x="372.847" y="363.177" width="4.35259" height="7.54449" fill="#16181C"/>
<rect x="358.048" y="375.364" width="4.93293" height="5.22311" fill="white"/>
<rect x="371.977" y="350.989" width="2.90173" height="4.93293" fill="white"/>
<rect x="360.37" y="350.989" width="2.90173" height="4.93293" fill="white"/>
<rect x="346.442" y="358.244" width="2.32138" height="9.86587" fill="white"/>
<rect x="387.066" y="358.244" width="2.32138" height="9.86587" fill="white"/>
<rect x="355.437" y="358.244" width="24.3745" height="2.03121" fill="white"/>
<rect x="357.758" y="355.923" width="19.7317" height="2.32138" fill="white"/>
<path d="M64.2013 80.2563H59.871V75.9261V71.5958H55.5408H51.2105V67.2655V62.9352H55.5408H59.871V58.6049V54.2746V49.9444V45.6141V41.2838V36.9535V32.6232V28.2929H64.2013H68.5316V32.6232V36.9535V41.2838V45.6141V49.9444V54.2746V58.6049V62.9352V67.2655V71.5958V75.9261V80.2563H64.2013ZM29.559 80.2563H25.2288V75.9261V71.5958V67.2655V62.9352V58.6049V54.2746V49.9444V45.6141V41.2838V36.9535V32.6232V28.2929H29.559H33.8893V32.6232V36.9535V41.2838V45.6141V49.9444V54.2746V58.6049V62.9352H38.2196H42.5499V67.2655V71.5958H38.2196H33.8893V75.9261V80.2563H29.559ZM51.2105 62.9352H46.8802H42.5499V58.6049V54.2746H46.8802H51.2105V58.6049V62.9352ZM107.504 80.2563H103.174V75.9261V71.5958V67.2655V62.9352V58.6049V54.2746H98.8436H94.5133H90.183H85.8527H81.5225V58.6049V62.9352V67.2655V71.5958V75.9261V80.2563H77.1922H72.8619V75.9261V71.5958V67.2655V62.9352V58.6049V54.2746V49.9444V45.6141V41.2838V36.9535H77.1922H81.5225V41.2838V45.6141H85.8527H90.183H94.5133H98.8436H103.174V41.2838V36.9535H107.504H111.834V41.2838V45.6141V49.9444V54.2746V58.6049V62.9352V67.2655V71.5958V75.9261V80.2563H107.504ZM103.174 36.9535H98.8436H94.5133H90.183H85.8527H81.5225V32.6232V28.2929H85.8527H90.183H94.5133H98.8436H103.174V32.6232V36.9535ZM150.807 80.2563H146.477H142.146H137.816H133.486H129.156H124.825V75.9261V71.5958H129.156H133.486H137.816H142.146H146.477H150.807H155.137V75.9261V80.2563H150.807ZM155.137 71.5958V67.2655V62.9352V58.6049V54.2746H150.807H146.477V49.9444V45.6141H150.807H155.137H159.468H163.798V49.9444V54.2746V58.6049V62.9352V67.2655V71.5958H159.468H155.137ZM124.825 71.5958H120.495H116.165V67.2655V62.9352V58.6049V54.2746V49.9444V45.6141V41.2838V36.9535H120.495H124.825V41.2838V45.6141V49.9444V54.2746V58.6049V62.9352V67.2655V71.5958ZM159.468 36.9535H155.137H150.807H146.477H142.146H137.816H133.486H129.156H124.825V32.6232V28.2929H129.156H133.486H137.816H142.146H146.477H150.807H155.137H159.468H163.798V32.6232V36.9535H159.468ZM207.101 80.2563H202.77V75.9261V71.5958V67.2655V62.9352V58.6049V54.2746V49.9444V45.6141H198.44H194.11V49.9444V54.2746H189.78H185.449V49.9444V45.6141H189.78H194.11V41.2838V36.9535H198.44H202.77V32.6232V28.2929H207.101H211.431V32.6232V36.9535V41.2838V45.6141V49.9444V54.2746V58.6049V62.9352V67.2655V71.5958V75.9261V80.2563H207.101ZM172.458 80.2563H168.128V75.9261V71.5958V67.2655V62.9352V58.6049V54.2746V49.9444V45.6141V41.2838V36.9535V32.6232V28.2929H172.458H176.789V32.6232V36.9535H181.119H185.449V41.2838V45.6141H181.119H176.789V49.9444V54.2746V58.6049V62.9352V67.2655V71.5958V75.9261V80.2563H172.458ZM233.082 80.2563H228.752H224.422H220.092V75.9261V71.5958H224.422V67.2655V62.9352V58.6049V54.2746V49.9444V45.6141V41.2838V36.9535H220.092V32.6232V28.2929H224.422H228.752H233.082H237.413V32.6232V36.9535H233.082V41.2838V45.6141V49.9444V54.2746V58.6049V62.9352V67.2655V71.5958H237.413V75.9261V80.2563H233.082Z" fill="white"/>
<path d="M254.358 83.2012H249.26V78.1033V73.0055H254.358H259.456V78.1033V83.2012H254.358ZM254.358 67.9076H249.26V62.8097V57.7119V52.614V47.5162V42.4183V37.3204V32.2226V27.1247V22.0269H254.358H259.456V27.1247V32.2226V37.3204V42.4183V47.5162V52.614V57.7119V62.8097V67.9076H254.358Z" fill="white"/>
</svg>
