<svg width="1440" height="929" viewBox="0 0 1440 929" fill="none" xmlns="http://www.w3.org/2000/svg">
<rect width="1440" height="724" fill="#8342FF"/>
<g opacity="0.5">
<path d="M696 543.501L625 511.001L553.5 622.501L414.5 495.501H315.5L58.5001 735.501H1391.5L1286 613.001L1092.5 579.001L826 652.001L730 622.501L696 543.501Z" fill="#936EFF"/>
<path d="M202.519 293.208C151.299 327.756 112.619 377.937 92.2484 436.265C71.878 494.593 70.9085 557.944 89.4846 616.868C108.061 675.792 145.187 727.133 195.326 763.233C245.466 799.332 305.931 818.257 367.705 817.184C429.479 816.11 489.25 795.097 538.105 757.277C586.96 719.457 622.281 666.858 638.799 607.324C655.317 547.79 652.147 484.511 629.763 426.926C607.378 369.34 566.979 320.534 514.589 287.785L463.222 369.96C497.891 391.632 524.625 423.929 539.438 462.037C554.251 500.144 556.349 542.018 545.418 581.415C534.487 620.811 511.114 655.619 478.784 680.646C446.454 705.673 406.9 719.579 366.022 720.289C325.143 721 285.13 708.476 251.95 684.587C218.77 660.698 194.202 626.724 181.909 587.731C169.617 548.738 170.258 506.815 183.738 468.217C197.218 429.618 222.815 396.411 256.71 373.549L202.519 293.208Z" fill="#936EFF"/>
</g>
<path d="M126.5 444.5L-35 348.906L-50 749.784L1489 763V126L1317 248.026L1266 541.856L1106.5 622.472L1036.5 729.08H413.5L347.5 635.688L186 585.028L126.5 444.5Z" fill="#7F03FB"/>
<path d="M1237.18 199.181C1237.11 198.31 1238.13 197.787 1238.79 198.348L1250.23 207.935C1250.77 208.387 1250.68 209.244 1250.05 209.567L1239.78 214.857C1239.16 215.18 1238.41 214.76 1238.35 214.058L1237.18 199.181Z" fill="#7F03FB"/>
<path d="M1219.93 199.181C1219.86 198.31 1220.87 197.787 1221.54 198.348L1232.98 207.935C1233.52 208.387 1233.42 209.244 1232.8 209.567L1222.53 214.857C1221.91 215.18 1221.15 214.76 1221.1 214.058L1219.93 199.181Z" fill="#7F03FB"/>
<rect x="1239.82" y="257.517" width="6.11417" height="19.973" rx="3.05708" transform="rotate(-64.3534 1239.82 257.517)" fill="#7F03FB"/>
<rect x="1237.95" y="240.818" width="12.8398" height="19.9729" rx="6.41988" fill="#7F03FB"/>
<rect x="1255.26" y="256.533" width="17.6933" height="11.719" rx="5.85948" fill="#7F03FB"/>
<rect x="1270.6" y="262.126" width="5.93245" height="2.82934" rx="1.41467" transform="rotate(38.2592 1270.6 262.126)" fill="#7F03FB"/>
<rect x="1272.08" y="257.169" width="7.27331" height="7.80036" rx="3.63665" transform="rotate(38.2592 1272.08 257.169)" fill="#7F03FB"/>
<path d="M1198 212.32C1198 209.378 1200.38 206.993 1203.33 206.993H1245.94C1254.47 206.993 1261.39 213.909 1261.39 222.441V239.753C1261.39 248.285 1254.47 255.201 1245.94 255.201H1213.45C1204.92 255.201 1198 248.285 1198 239.753V212.32Z" fill="#7F03FB"/>
<rect x="1246.49" y="269.387" width="7.09787" height="3.38516" rx="1.69258" transform="rotate(38.2592 1246.49 269.387)" fill="#7F03FB"/>
<rect x="1248.26" y="263.457" width="8.70214" height="9.33273" rx="4.35107" transform="rotate(38.2592 1248.26 263.457)" fill="#7F03FB"/>
<rect x="1228.07" y="216.167" width="29.5743" height="15.2801" rx="4.43614" fill="#7F03FB"/>
<rect x="1235.46" y="227.996" width="16.7588" height="19.7162" rx="4.43614" fill="#7F03FB"/>
<rect x="1233.49" y="221.096" width="2.92974" height="5.85948" fill="#7F03FB"/>
<rect x="1236.94" y="221.096" width="2.92974" height="5.85948" fill="#7F03FB"/>
<rect x="1240.39" y="221.096" width="2.92974" height="5.85948" fill="#7F03FB"/>
<rect x="1243.84" y="221.096" width="2.92974" height="5.85948" fill="#7F03FB"/>
<rect x="1247.29" y="221.096" width="2.92974" height="5.85948" fill="#7F03FB"/>
<rect x="1250.74" y="221.096" width="2.92974" height="5.85948" fill="#7F03FB"/>
<rect x="1233.49" y="223.56" width="20.2091" height="0.98581" fill="#7F03FB"/>
<rect x="1217.44" y="256.11" width="6.11417" height="19.9729" rx="3.05708" transform="rotate(-42.1833 1217.44 256.11)" fill="#7F03FB"/>
<rect x="1216.11" y="240.818" width="12.8398" height="19.9729" rx="6.41988" fill="#7F03FB"/>
<rect x="1227.83" y="262.392" width="20.5082" height="13.5833" rx="6.79167" fill="#7F03FB"/>
<path d="M1206.93 232.013V224.302L1203.08 232.013H1206.93ZM1206.93 238.323V234.116H1200.63V232.714L1207.29 219.394H1209.04V232.013H1211.14V234.116H1209.04V238.323H1206.93ZM1214.65 238.323V234.116L1223.06 225.704V223.601L1220.96 221.497H1218.85L1216.05 224.302L1214.65 222.9L1218.15 219.394H1221.66L1225.16 222.9V226.405L1216.75 234.817V236.219H1225.16V238.323H1214.65Z" fill="#7F03FB"/>
<path d="M1323.87 171.593C1323.91 171.087 1323.32 170.782 1322.93 171.109L1316.28 176.682C1315.96 176.945 1316.02 177.443 1316.38 177.63L1322.35 180.706C1322.72 180.893 1323.15 180.649 1323.18 180.241L1323.87 171.593Z" fill="#7F03FB"/>
<path d="M1333.89 171.593C1333.93 171.087 1333.34 170.782 1332.95 171.109L1326.31 176.682C1325.99 176.945 1326.05 177.443 1326.41 177.63L1332.38 180.706C1332.74 180.893 1333.18 180.649 1333.21 180.241L1333.89 171.593Z" fill="#7F03FB"/>
<rect width="3.55421" height="11.6104" rx="1.7771" transform="matrix(-0.43282 -0.901481 -0.901481 0.43282 1322.33 205.504)" fill="#7F03FB"/>
<rect width="7.46384" height="11.6104" rx="3.73192" transform="matrix(-1 0 0 1 1323.42 195.797)" fill="#7F03FB"/>
<rect width="10.2853" height="6.81231" rx="3.40615" transform="matrix(-1 0 0 1 1313.35 204.932)" fill="#7F03FB"/>
<rect width="3.44857" height="1.64472" rx="0.822358" transform="matrix(-0.785218 0.61922 0.61922 0.785218 1304.44 208.183)" fill="#7F03FB"/>
<rect width="4.22802" height="4.5344" rx="2.11401" transform="matrix(-0.785218 0.61922 0.61922 0.785218 1303.58 205.302)" fill="#7F03FB"/>
<path d="M1346.64 179.231C1346.64 177.521 1345.25 176.134 1343.54 176.134H1318.77C1313.81 176.134 1309.79 180.155 1309.79 185.114V195.178C1309.79 200.137 1313.81 204.158 1318.77 204.158H1337.66C1342.62 204.158 1346.64 200.137 1346.64 195.178V179.231Z" fill="#7F03FB"/>
<rect width="4.12604" height="1.96782" rx="0.983909" transform="matrix(-0.785218 0.61922 0.61922 0.785218 1318.45 212.404)" fill="#7F03FB"/>
<rect width="5.05861" height="5.42518" rx="2.52931" transform="matrix(-0.785218 0.61922 0.61922 0.785218 1317.43 208.957)" fill="#7F03FB"/>
<rect width="17.1917" height="8.8824" rx="2.57876" transform="matrix(-1 0 0 1 1329.16 181.467)" fill="#7F03FB"/>
<rect width="9.74198" height="11.4612" rx="2.57876" transform="matrix(-1 0 0 1 1324.86 188.344)" fill="#7F03FB"/>
<rect width="1.70308" height="3.40615" transform="matrix(-1 0 0 1 1326.01 184.332)" fill="#7F03FB"/>
<rect width="1.70308" height="3.40615" transform="matrix(-1 0 0 1 1324 184.332)" fill="#7F03FB"/>
<rect width="1.70308" height="3.40615" transform="matrix(-1 0 0 1 1322 184.332)" fill="#7F03FB"/>
<rect width="1.70308" height="3.40615" transform="matrix(-1 0 0 1 1319.99 184.332)" fill="#7F03FB"/>
<rect width="1.70308" height="3.40615" transform="matrix(-1 0 0 1 1317.99 184.332)" fill="#7F03FB"/>
<rect width="1.70308" height="3.40615" transform="matrix(-1 0 0 1 1315.98 184.332)" fill="#7F03FB"/>
<rect width="11.7477" height="0.573058" transform="matrix(-1 0 0 1 1326.01 185.765)" fill="#7F03FB"/>
<rect width="3.55421" height="11.6104" rx="1.7771" transform="matrix(-0.741 -0.671505 -0.671505 0.741 1335.34 204.687)" fill="#7F03FB"/>
<rect width="7.46384" height="11.6104" rx="3.73192" transform="matrix(-1 0 0 1 1336.11 195.797)" fill="#7F03FB"/>
<rect width="11.9215" height="7.89609" rx="3.94804" transform="matrix(-1 0 0 1 1329.3 208.338)" fill="#7F03FB"/>
<path d="M1341.45 190.496V186.013L1343.69 190.496H1341.45ZM1341.45 194.163V191.718H1345.11V190.903L1341.24 183.16H1340.22V190.496H1339V191.718H1340.22V194.163H1341.45ZM1336.96 194.163V191.718L1332.07 186.828V185.605L1333.3 184.383H1334.52L1336.15 186.013L1336.96 185.198L1334.93 183.16H1332.89L1330.85 185.198V187.235L1335.74 192.126V192.941H1330.85V194.163H1336.96Z" fill="#7F03FB"/>
<path d="M204.056 433.181C204.124 432.31 203.109 431.787 202.439 432.348L191.003 441.935C190.463 442.387 190.558 443.244 191.185 443.567L201.45 448.857C202.076 449.18 202.829 448.76 202.884 448.058L204.056 433.181Z" fill="#7F03FB"/>
<path d="M221.307 433.181C221.376 432.31 220.361 431.787 219.691 432.348L208.255 441.935C207.715 442.387 207.81 443.244 208.436 443.567L218.701 448.857C219.328 449.18 220.081 448.76 220.136 448.058L221.307 433.181Z" fill="#7F03FB"/>
<rect width="6.11417" height="19.9729" rx="3.05708" transform="matrix(-0.43282 -0.901481 -0.901481 0.43282 201.419 491.517)" fill="#7F03FB"/>
<rect width="12.8398" height="19.9729" rx="6.41988" transform="matrix(-1 0 0 1 203.283 474.818)" fill="#7F03FB"/>
<rect width="17.6933" height="11.719" rx="5.85948" transform="matrix(-1 0 0 1 185.971 490.533)" fill="#7F03FB"/>
<rect width="5.93245" height="2.82934" rx="1.41467" transform="matrix(-0.785218 0.61922 0.61922 0.785218 170.636 496.126)" fill="#7F03FB"/>
<rect width="7.27331" height="7.80036" rx="3.63665" transform="matrix(-0.785218 0.61922 0.61922 0.785218 169.156 491.169)" fill="#7F03FB"/>
<path d="M243.234 446.32C243.234 443.378 240.849 440.993 237.907 440.993H195.293C186.762 440.993 179.845 447.909 179.845 456.441V473.753C179.845 482.285 186.762 489.201 195.293 489.201H227.787C236.318 489.201 243.234 482.285 243.234 473.753V446.32Z" fill="#7F03FB"/>
<rect width="7.09787" height="3.38516" rx="1.69258" transform="matrix(-0.785218 0.61922 0.61922 0.785218 194.747 503.387)" fill="#7F03FB"/>
<rect width="8.70214" height="9.33273" rx="4.35107" transform="matrix(-0.785218 0.61922 0.61922 0.785218 192.977 497.457)" fill="#7F03FB"/>
<rect width="29.5743" height="15.2801" rx="4.43614" transform="matrix(-1 0 0 1 213.167 450.167)" fill="#7F03FB"/>
<rect width="16.7588" height="19.7162" rx="4.43614" transform="matrix(-1 0 0 1 205.773 461.996)" fill="#7F03FB"/>
<rect width="2.92974" height="5.85948" transform="matrix(-1 0 0 1 207.745 455.096)" fill="#7F03FB"/>
<rect width="2.92974" height="5.85948" transform="matrix(-1 0 0 1 204.295 455.096)" fill="#7F03FB"/>
<rect width="2.92974" height="5.85948" transform="matrix(-1 0 0 1 200.844 455.096)" fill="#7F03FB"/>
<rect width="2.92974" height="5.85948" transform="matrix(-1 0 0 1 197.394 455.096)" fill="#7F03FB"/>
<rect width="2.92974" height="5.85948" transform="matrix(-1 0 0 1 193.944 455.096)" fill="#7F03FB"/>
<rect width="2.92974" height="5.85948" transform="matrix(-1 0 0 1 190.493 455.096)" fill="#7F03FB"/>
<rect width="20.2091" height="0.98581" transform="matrix(-1 0 0 1 207.745 457.56)" fill="#7F03FB"/>
<rect width="6.11417" height="19.9729" rx="3.05708" transform="matrix(-0.741 -0.671505 -0.671505 0.741 223.791 490.11)" fill="#7F03FB"/>
<rect width="12.8398" height="19.9729" rx="6.41988" transform="matrix(-1 0 0 1 225.123 474.818)" fill="#7F03FB"/>
<rect width="20.5082" height="13.5833" rx="6.79167" transform="matrix(-1 0 0 1 213.404 496.392)" fill="#7F03FB"/>
<path d="M234.3 466.013V458.302L238.155 466.013H234.3ZM234.3 472.323V468.116H240.609V466.714L233.949 453.394H232.196V466.013H230.093V468.116H232.196V472.323H234.3ZM226.588 472.323V468.116L218.175 459.704V457.601L220.279 455.497H222.382L225.186 458.302L226.588 456.9L223.083 453.394H219.578L216.072 456.9V460.405L224.485 468.817V470.219H216.072V472.323H226.588Z" fill="#7F03FB"/>
<rect x="146" y="493" width="52" height="49" fill="#7F03FB"/>
<rect x="1248" y="259" width="28" height="49" rx="14" fill="#7F03FB"/>
<path d="M322.375 53.741C322.345 53.3547 322.795 53.1227 323.092 53.3717L328.163 57.6232C328.403 57.824 328.361 58.2038 328.083 58.3469L323.531 60.693C323.253 60.8361 322.919 60.6502 322.894 60.3387L322.375 53.741Z" fill="#7F03FB"/>
<path d="M314.724 53.741C314.694 53.3547 315.144 53.1227 315.441 53.3717L320.513 57.6232C320.752 57.824 320.71 58.2038 320.432 58.3469L315.88 60.693C315.602 60.8361 315.268 60.6502 315.244 60.3387L314.724 53.741Z" fill="#7F03FB"/>
<rect x="323.544" y="79.6117" width="2.7115" height="8.85757" rx="1.35575" transform="rotate(-64.3534 323.544 79.6117)" fill="#7F03FB"/>
<rect x="322.717" y="72.2065" width="5.69415" height="8.85757" rx="2.84708" fill="#7F03FB"/>
<rect x="330.395" y="79.1753" width="7.84661" height="5.1971" rx="2.59855" fill="#7F03FB"/>
<rect x="337.196" y="81.6557" width="2.63091" height="1.25475" rx="0.627376" transform="rotate(38.2592 337.196 81.6557)" fill="#7F03FB"/>
<rect x="337.852" y="79.4578" width="3.22555" height="3.45929" rx="1.61278" transform="rotate(38.2592 337.852 79.4578)" fill="#7F03FB"/>
<path d="M305 59.568C305 58.2634 306.058 57.2057 307.362 57.2057H326.261C330.044 57.2057 333.112 60.2729 333.112 64.0564V71.734C333.112 75.5175 330.044 78.5847 326.261 78.5847H311.851C308.067 78.5847 305 75.5175 305 71.734V59.568Z" fill="#7F03FB"/>
<rect x="326.503" y="84.876" width="3.14775" height="1.50125" rx="0.750623" transform="rotate(38.2592 326.503 84.876)" fill="#7F03FB"/>
<rect x="327.288" y="82.2463" width="3.85921" height="4.13886" rx="1.92961" transform="rotate(38.2592 327.288 82.2463)" fill="#7F03FB"/>
<rect x="318.334" y="61.2739" width="13.1156" height="6.77637" rx="1.96733" fill="#7F03FB"/>
<rect x="321.613" y="66.5201" width="7.43215" height="8.7437" rx="1.96733" fill="#7F03FB"/>
<rect x="320.739" y="63.4598" width="1.29928" height="2.59855" fill="#7F03FB"/>
<rect x="322.269" y="63.4598" width="1.29928" height="2.59855" fill="#7F03FB"/>
<rect x="323.799" y="63.4598" width="1.29928" height="2.59855" fill="#7F03FB"/>
<rect x="325.329" y="63.4598" width="1.29928" height="2.59855" fill="#7F03FB"/>
<rect x="326.859" y="63.4598" width="1.29928" height="2.59855" fill="#7F03FB"/>
<rect x="328.389" y="63.4598" width="1.29928" height="2.59855" fill="#7F03FB"/>
<rect x="320.739" y="64.5527" width="8.9623" height="0.437185" fill="#7F03FB"/>
<rect x="313.622" y="78.9881" width="2.7115" height="8.85757" rx="1.35575" transform="rotate(-42.1833 313.622 78.9881)" fill="#7F03FB"/>
<rect x="313.032" y="72.2065" width="5.69415" height="8.85757" rx="2.84708" fill="#7F03FB"/>
<rect x="318.229" y="81.7738" width="9.09493" height="6.02391" rx="3.01196" fill="#7F03FB"/>
<path d="M308.962 67.6667V64.2468L307.252 67.6667H308.962ZM308.962 70.4648V68.5994H306.164V67.9776L309.118 62.0705H309.895V67.6667H310.828V68.5994H309.895V70.4648H308.962ZM312.382 70.4648V68.5994L316.113 64.8686V63.9359L315.18 63.0032H314.248L313.004 64.2468L312.382 63.625L313.937 62.0705H315.491L317.046 63.625V65.1795L313.315 68.9103V69.5321H317.046V70.4648H312.382Z" fill="#7F03FB"/>
<rect x="344.531" y="73" width="38" height="22" rx="6" transform="rotate(57.384 344.531 73)" fill="#7F03FB"/>
<path d="M1158.79 138.926C1158.81 138.654 1158.5 138.491 1158.29 138.666L1154.73 141.653C1154.56 141.795 1154.59 142.061 1154.78 142.162L1157.98 143.81C1158.18 143.911 1158.41 143.78 1158.43 143.561L1158.79 138.926Z" fill="#7F03FB"/>
<path d="M1164.17 138.926C1164.19 138.654 1163.87 138.491 1163.66 138.666L1160.1 141.653C1159.93 141.795 1159.96 142.061 1160.16 142.162L1163.36 143.81C1163.55 143.911 1163.79 143.78 1163.8 143.561L1164.17 138.926Z" fill="#7F03FB"/>
<rect width="1.9051" height="6.22332" rx="0.952548" transform="matrix(-0.43282 -0.901481 -0.901481 0.43282 1157.97 157.103)" fill="#7F03FB"/>
<rect width="4.0007" height="6.22332" rx="2.00035" transform="matrix(-1 0 0 1 1158.55 151.9)" fill="#7F03FB"/>
<rect width="5.51301" height="3.65148" rx="1.82574" transform="matrix(-1 0 0 1 1153.16 156.796)" fill="#7F03FB"/>
<rect width="1.84847" height="0.881587" rx="0.440793" transform="matrix(-0.785218 0.61922 0.61922 0.785218 1148.38 158.539)" fill="#7F03FB"/>
<rect width="2.26627" height="2.43049" rx="1.13313" transform="matrix(-0.785218 0.61922 0.61922 0.785218 1147.92 156.994)" fill="#7F03FB"/>
<path d="M1171 143.02C1171 142.103 1170.26 141.36 1169.34 141.36H1156.06C1153.4 141.36 1151.25 143.515 1151.25 146.173V151.568C1151.25 154.226 1153.4 156.381 1156.06 156.381H1166.19C1168.85 156.381 1171 154.226 1171 151.568V143.02Z" fill="#7F03FB"/>
<rect width="2.21161" height="1.05477" rx="0.527387" transform="matrix(-0.785218 0.61922 0.61922 0.785218 1155.89 160.801)" fill="#7F03FB"/>
<rect width="2.71148" height="2.90796" rx="1.35574" transform="matrix(-0.785218 0.61922 0.61922 0.785218 1155.34 158.954)" fill="#7F03FB"/>
<rect width="9.21497" height="4.76107" rx="1.38225" transform="matrix(-1 0 0 1 1161.63 144.218)" fill="#7F03FB"/>
<rect width="5.22182" height="6.14331" rx="1.38225" transform="matrix(-1 0 0 1 1159.33 147.904)" fill="#7F03FB"/>
<rect width="0.912869" height="1.82574" transform="matrix(-1 0 0 1 1159.94 145.754)" fill="#7F03FB"/>
<rect width="0.912869" height="1.82574" transform="matrix(-1 0 0 1 1158.87 145.754)" fill="#7F03FB"/>
<rect width="0.912869" height="1.82574" transform="matrix(-1 0 0 1 1157.79 145.754)" fill="#7F03FB"/>
<rect width="0.912869" height="1.82574" transform="matrix(-1 0 0 1 1156.72 145.754)" fill="#7F03FB"/>
<rect width="0.912869" height="1.82574" transform="matrix(-1 0 0 1 1155.64 145.754)" fill="#7F03FB"/>
<rect width="0.912869" height="1.82574" transform="matrix(-1 0 0 1 1154.57 145.754)" fill="#7F03FB"/>
<rect width="6.2969" height="0.307166" transform="matrix(-1 0 0 1 1159.94 146.522)" fill="#7F03FB"/>
<rect width="1.9051" height="6.22332" rx="0.952548" transform="matrix(-0.741 -0.671505 -0.671505 0.741 1164.94 156.664)" fill="#7F03FB"/>
<rect width="4.0007" height="6.22332" rx="2.00035" transform="matrix(-1 0 0 1 1165.36 151.9)" fill="#7F03FB"/>
<rect width="6.39009" height="4.23239" rx="2.1162" transform="matrix(-1 0 0 1 1161.71 158.622)" fill="#7F03FB"/>
<path d="M1168.22 148.874V146.471L1169.42 148.874H1168.22ZM1168.22 150.84V149.529H1170.18V149.092L1168.11 144.942H1167.56V148.874H1166.91V149.529H1167.56V150.84H1168.22ZM1165.81 150.84V149.529L1163.19 146.908V146.252L1163.85 145.597H1164.5L1165.38 146.471L1165.81 146.034L1164.72 144.942H1163.63L1162.54 146.034V147.126L1165.16 149.747V150.184H1162.54V150.84H1165.81Z" fill="#7F03FB"/>
<path d="M1123.21 127.926C1123.19 127.654 1123.5 127.491 1123.71 127.666L1127.27 130.653C1127.44 130.795 1127.41 131.061 1127.22 131.162L1124.02 132.81C1123.82 132.911 1123.59 132.78 1123.57 132.561L1123.21 127.926Z" fill="#7F03FB"/>
<path d="M1117.83 127.926C1117.81 127.654 1118.13 127.491 1118.34 127.666L1121.9 130.653C1122.07 130.795 1122.04 131.061 1121.84 131.162L1118.64 132.81C1118.45 132.911 1118.21 132.78 1118.2 132.561L1117.83 127.926Z" fill="#7F03FB"/>
<rect x="1124.03" y="146.103" width="1.9051" height="6.22332" rx="0.952548" transform="rotate(-64.3534 1124.03 146.103)" fill="#7F03FB"/>
<rect x="1123.45" y="140.9" width="4.0007" height="6.22332" rx="2.00035" fill="#7F03FB"/>
<rect x="1128.84" y="145.796" width="5.51301" height="3.65148" rx="1.82574" fill="#7F03FB"/>
<rect x="1133.62" y="147.539" width="1.84847" height="0.881587" rx="0.440793" transform="rotate(38.2592 1133.62 147.539)" fill="#7F03FB"/>
<rect x="1134.08" y="145.994" width="2.26627" height="2.43049" rx="1.13313" transform="rotate(38.2592 1134.08 145.994)" fill="#7F03FB"/>
<path d="M1111 132.02C1111 131.103 1111.74 130.36 1112.66 130.36H1125.94C1128.6 130.36 1130.75 132.515 1130.75 135.173V140.568C1130.75 143.226 1128.6 145.381 1125.94 145.381H1115.81C1113.15 145.381 1111 143.226 1111 140.568V132.02Z" fill="#7F03FB"/>
<rect x="1126.11" y="149.801" width="2.21161" height="1.05477" rx="0.527387" transform="rotate(38.2592 1126.11 149.801)" fill="#7F03FB"/>
<rect x="1126.66" y="147.954" width="2.71148" height="2.90796" rx="1.35574" transform="rotate(38.2592 1126.66 147.954)" fill="#7F03FB"/>
<rect x="1120.37" y="133.218" width="9.21497" height="4.76107" rx="1.38225" fill="#7F03FB"/>
<rect x="1122.67" y="136.904" width="5.22182" height="6.14331" rx="1.38225" fill="#7F03FB"/>
<rect x="1122.06" y="134.754" width="0.912869" height="1.82574" fill="#7F03FB"/>
<rect x="1123.13" y="134.754" width="0.912869" height="1.82574" fill="#7F03FB"/>
<rect x="1124.21" y="134.754" width="0.912869" height="1.82574" fill="#7F03FB"/>
<rect x="1125.28" y="134.754" width="0.912869" height="1.82574" fill="#7F03FB"/>
<rect x="1126.36" y="134.754" width="0.912869" height="1.82574" fill="#7F03FB"/>
<rect x="1127.43" y="134.754" width="0.912869" height="1.82574" fill="#7F03FB"/>
<rect x="1122.06" y="135.522" width="6.2969" height="0.307166" fill="#7F03FB"/>
<rect x="1117.06" y="145.664" width="1.9051" height="6.22332" rx="0.952548" transform="rotate(-42.1833 1117.06 145.664)" fill="#7F03FB"/>
<rect x="1116.64" y="140.9" width="4.0007" height="6.22332" rx="2.00035" fill="#7F03FB"/>
<rect x="1120.29" y="147.622" width="6.39009" height="4.23239" rx="2.1162" fill="#7F03FB"/>
<path d="M1113.78 137.874V135.471L1112.58 137.874H1113.78ZM1113.78 139.84V138.529H1111.82V138.092L1113.89 133.942H1114.44V137.874H1115.09V138.529H1114.44V139.84H1113.78ZM1116.19 139.84V138.529L1118.81 135.908V135.252L1118.15 134.597H1117.5L1116.62 135.471L1116.19 135.034L1117.28 133.942H1118.37L1119.46 135.034V136.126L1116.84 138.747V139.184H1119.46V139.84H1116.19Z" fill="#7F03FB"/>
<rect x="1133.69" y="143.703" width="23.3457" height="15.3086" rx="7.65432" transform="rotate(26.4251 1133.69 143.703)" fill="#7F03FB"/>
<rect x="1125.88" y="170.594" width="23.3457" height="13.3951" rx="5.54938" transform="rotate(-63.5749 1125.88 170.594)" fill="#7F03FB"/>
<rect x="1148.65" y="164.347" width="8.00423" height="4.59259" rx="1.90265" transform="rotate(-63.5749 1148.65 164.347)" fill="#7F03FB"/>
<rect x="1125" y="152.595" width="8.00423" height="4.59259" rx="1.90265" transform="rotate(-63.5749 1125 152.595)" fill="#7F03FB"/>
</svg>
