<svg id="Layer_1" data-name="Layer 1" xmlns="http://www.w3.org/2000/svg" viewBox="0 0 642.37 549.76"><defs><style>.cls-1{fill:#fbfbfb;fill-rule:evenodd;}</style></defs><path class="cls-1" d="M218.63.27a20,20,0,0,0-15.89,14.39c-.43,1.68-.5,6.07-.5,33.16V79.05l-39.84.18-2.12,1a14.75,14.75,0,0,0-3.49,2.46C155,84.62,2.11,306.81,1,309.14a15.05,15.05,0,0,0-.51,9.4c.75,2.41,91,133.8,93.55,136.2,4,3.74,4.42,3.7,28.13-2.7s24.28-6.47,28.19-2.48c4.41,4.5,4.52,3.89-6.17,34.48-8.61,24.63-8.94,25.65-8.94,28,0,3.35-.26,2.91,10.59,18.7C156.33,546,157.16,547,160.28,548.54l2.12,1.05,87.12.17c4.56-1.79,7.32-4.58,7.29-9.84v-2.79c-7.76-20.66-23.38-62.26-31.13-82.92v-2.62c0-5.52,3.21-8.72,8.19-10.82H408.25c5,2,8.22,5.4,8.17,11l0,2.79-15.52,41.3c-17.24,45.9-16.58,43.79-15.11,47.7a10.46,10.46,0,0,0,5.15,5.44l1.68.78,87.11-.17c6.68-3.36,4.53-1.5,16.2-18.09,12.19-18.17,10.59-14.23,11.24-21.24l-9-25.73c-10.76-30.9-10.6-30.06-6.64-34.69,3.72-4.35,4.53-4.29,28.49,2.18,24.26,6.32,23,7.07,29.12,1.92,2.5-3.12,90.94-132,91.92-133.95a13.16,13.16,0,0,0-.34-12.11C638,303.47,486.8,84.15,485.63,82.91c-1.39-1.65-3.94-2.73-5.93-3.68l-39.49-.18V47.82c0-26.87-.07-31.49-.5-33.18C436,.13,417.22-4.87,406.57,5.83c-2.75,2.75,2-6.79-39.59,78.81l-28.31,58.18H303.79L273.34,80.21C235,1.38,238.71,8.81,236.37,6.27c-4.23-4.6-11.75-7.14-17.74-6M239,250.64c73.83,12,74.19,115-.2,127.81l-34.26.12c-40.44.14-41,.11-50.76-3.25-65-23.15-54.2-116.51,13.73-124.93,3.82-.4,68.26-.18,71.49.25m237.65,0c73.86,12,74.1,115.15-.21,127.81-13.56,0-69.58.42-71.79-.13C329.53,367.67,329,262,404,250.54c4.08-.53,68.58-.43,72.61.1"/><path class="cls-1" d="M170,276.75c-35.13,4.17-45.78,51.27-15.77,69.76,9.27,5.71,11,5.92,48.46,5.92,37,0,38.72-.21,48-5.92,30.35-18.7,19.29-65.8-16.38-69.77-3.73-.42-60.78-.41-64.29,0"/><path class="cls-1" d="M407.59,276.75c-35.13,4.17-45.78,51.27-15.77,69.76,9.27,5.71,11,5.92,48.46,5.92,37,0,38.72-.21,48-5.92,30.35-18.7,19.29-65.8-16.38-69.77-3.73-.42-60.78-.41-64.29,0"/></svg>