<svg width="264" height="138" viewBox="0 0 264 138" fill="none" xmlns="http://www.w3.org/2000/svg">
<rect x="10.0596" y="-2.28882e-05" width="243.8" height="137.088" rx="68.544" fill="#FF5E03"/>
<rect x="32.7432" y="9.46794" width="198.433" height="92.1153" rx="46.0577" fill="#FFC900"/>
<path d="M25.9851 69.5067C26.9569 70.5944 26.4528 72.3242 25.0488 72.7195L12.6746 76.2041C11.6369 76.4963 10.5568 75.9013 10.2494 74.868L2.51578 48.8776C1.91491 46.8582 4.47355 45.4297 5.87727 47.0008L25.9851 69.5067Z" fill="#FF5E03"/>
<path d="M238.015 69.513C237.043 70.6007 237.547 72.3304 238.951 72.7258L251.325 76.2104C252.363 76.5026 253.443 75.9075 253.751 74.8743L261.484 48.8839C262.085 46.8645 259.526 45.436 258.123 47.0071L238.015 69.513Z" fill="#FF5E03"/>
<path d="M122.211 69.7265C110.073 24.6739 71.6087 30.6206 52.3861 39.8571C51.5503 40.2587 51.148 41.2307 51.4012 42.1227C64.9139 89.7179 102.726 82.2606 121.32 71.9074C122.083 71.4826 122.438 70.5696 122.211 69.7265Z" fill="white"/>
<circle cx="86.9065" cy="56.3274" r="21.2346" transform="rotate(-14.9 86.9065 56.3274)" fill="black"/>
<path d="M140.722 69.923C152.861 24.8706 191.325 30.8182 210.547 40.0551C211.383 40.4567 211.785 41.4288 211.532 42.3208C198.018 89.9156 160.207 82.4575 141.612 72.1038C140.849 71.6791 140.495 70.7661 140.722 69.923Z" fill="white"/>
<circle cx="176.026" cy="56.5246" r="21.2346" transform="rotate(14.9013 176.026 56.5246)" fill="black"/>
</svg>
